<?xml version="1.0" encoding="utf-8"?>
<!-- Generator: Adobe Illustrator 26.0.2, SVG Export Plug-In . SVG Version: 6.00 Build 0)  -->
<svg version="1.1" id="Слой_1" xmlns="http://www.w3.org/2000/svg" xmlns:xlink="http://www.w3.org/1999/xlink" x="0px" y="0px"
	 viewBox="0 0 1000 1000" style="enable-background:new 0 0 1000 1000;" xml:space="preserve">
<style type="text/css">
	.st0{fill:#F2F2F2;}
</style>
<g>
	<g>
		<path class="st0" d="M166.24,436.98c-46.59,20.05-86.48,53.88-115.48,95.35C22.04,573.37,3.21,623.6,2.05,673.98
			c-0.57,24.88,3.6,50.92,16.4,72.61c13.77,23.33,37,38.02,63.14,43.89c52.53,11.77,112.37-3.74,152.83-39.05
			c22.15-19.33,37.39-45.02,49.32-71.58c12.43-27.69,22.01-56.82,26.35-86.93c4.34-30.06,3.72-60.9-4.61-90.25
			c-6.3-22.22-18.37-46.96-40.65-56.81c-5.53-2.44-11.1-3.61-17.1-4.11c-0.6-0.05-1.2-0.1-1.8-0.17c1.12,0.12,0.59,0.11-0.15-0.04
			c-1.01-0.2-2.02-0.39-3.01-0.69c-0.73-0.22-2.73-1.14-0.99-0.28c-0.75-0.37-1.44-0.79-2.17-1.2c-0.89-0.5-0.24-0.27,0.29,0.25
			c-0.13-0.12-0.69-0.47-0.71-0.64c-0.01-0.15-0.53-0.56-0.64-0.69c-0.49-0.56,0.75,1.39,0.14,0.11c-0.42-0.87-0.77-2.04-0.28-0.34
			c-0.21-0.71-0.39-1.42-0.58-2.14c-0.28-1.06,0.09,1.57,0.06,0.45c-0.01-0.34-0.07-0.69-0.06-1.03c0.03-0.85,0.06-1.69,0.11-2.54
			c0.07-1.19-0.27,1.43-0.03,0.23c0.09-0.47,0.16-0.93,0.27-1.4c0.21-0.91,0.44-1.82,0.7-2.71c0.29-0.97,0.62-1.92,0.97-2.86
			c0.17-0.46,0.35-0.91,0.53-1.37c0.56-1.43-0.25,0.53,0.22-0.52c10.64-23.45,28.82-43.04,45.87-61.99
			c21.69-24.09,44.62-47.05,67.56-69.93c16.11-16.07,33.4-31.69,47.76-49.41c1.78-2.2,3.69-4.45,4.99-6.98
			c-3.03,0.8-6.07,1.59-9.1,2.39c9.54,4.56,19.84,6.35,30.37,6.45c3.94,0.04,7.88-0.18,11.81-0.48c1.54-0.12,3.08-0.28,4.62-0.37
			c0.8-0.05,3.76,0.12,1.32-0.27c-1.32-3.26-2.65-6.51-3.97-9.77c-13.34,30.28-46.68,44.62-60.48,74.43
			c-1.6,3.46-0.65,9.03,3.97,9.77c37.77,6.04,78.46-1.03,114.72-12.14c37.5-11.49,72.08-30.49,106.67-48.61
			c36.01-18.86,72.56-36.5,112.61-44.84c41.52-8.64,85.06-8.13,126.38,1.42c45.59,10.54,87.32,36.75,134.78,38.94
			c-1.57-3.78-3.14-7.57-4.7-11.35c-51.09,43.18-113.25,72.58-178.78,85.72c-33.53,6.73-67.6,8.69-101.72,6.83
			c-37.95-2.07-75.58-7.65-113.41-11.03c-42.31-3.77-85.05-4.28-126.65,5.42c-3.39,0.79-5.73,4.86-4.64,8.18
			c3.43,10.54,12.53,19.7,21.2,26.1c6.68,4.93,14.57,8.53,22.74,10.11c10,1.94,20.51,1.85,30.65,2.78
			c41.45,3.79,82.55,11.1,122.82,21.6c80.67,21.04,157.82,54.97,227.87,100.18c39.53,25.52,76.63,54.63,110.8,86.97
			c-0.35-2.69-0.69-5.37-1.04-8.06c-14.31,23.56-38.07,40.59-65.05,46.37c-31.85,6.83-65.4-2.1-95.24-13.17
			c-54.97-20.41-103.16-55.45-148.71-91.64c-47.99-38.12-94.56-77.87-146.34-110.91c-27.96-17.84-56.96-34.05-86.8-48.53
			c-8.09-3.92-16.49-8.4-25.67-5.32c-6.53,2.19-11.4,7.34-14.67,13.26c-8.6,15.58-9.77,35.3-10.07,52.7
			c-0.34,20.09,1.41,40.43,5.3,60.15c0.81,4.08,1.74,8.14,2.83,12.16c0.94,3.44,4.73,5.64,8.18,4.64
			c12.25-3.53,25.16-5.06,37.82-6.17c10.84-0.95,22.86-1.8,33.04-0.06c15.81,2.71,29.78,9.32,42.75,18.73
			c29.03,21.06,49.17,53.8,63.55,86.18c15.47,34.83,25.28,72.98,27.97,111.01c1.16,16.45,1.03,34.08-1.52,49.73
			c-2.29,14.07-5.96,27.05-13.21,38.54c-3,4.76-5.92,8.28-10.86,12.45c-0.84,0.71-0.65,0.53-0.67,0.54
			c-0.53,0.39-1.07,0.78-1.61,1.15c-1.25,0.85-2.53,1.63-3.86,2.35c-3.19,1.74-3.36,1.8-6.83,2.87c-14.87,4.6-31.49,4.01-46.94,0.98
			c-39.61-7.76-76.13-30.06-105.98-56.59c-32.47-28.85-59.95-65.35-73.58-106.94c-13.71-41.82-10.88-86.58,11.6-124.86
			c3.23-5.5,6.78-10.82,10.59-15.94c1.89-2.53,4.05-4.71,4.86-7.82c0.81-3.11,1.15-6.45,1.36-9.65c0.76-11.92-2.36-23.8-4.32-35.47
			c-2.77-16.52-2.89-33.09-1.17-49.74c1.46-14.1,5.15-28.7,4.31-42.93c-0.67-11.28-7.77-21.7-19.45-23.96
			c-10.86-2.09-23.49,2.26-32.25,8.7c-17.79,13.08-32.74,31.33-45.56,49.13c-4.81,6.68-10.02,13.94-12.36,21.95
			c-2.41,8.23,10.42,11.75,12.83,3.54c1.88-6.42,8.18-14.99,12.97-21.43c7.05-9.48,14.81-18.49,23-27
			c6.13-6.38,12.71-13.62,20.5-17.75c7.67-4.07,22.06-7.96,26.21,2.31c1.88,4.65,0.88,10.81,0.43,15.63
			c-0.73,7.78-1.95,15.52-2.92,23.27c-2.16,17.22-3.04,34.41-0.83,51.67c1.6,12.52,5.27,25.01,5.44,37.67
			c0.03,2.36-0.03,4.75-0.35,7.09c-0.06,0.46-1.02,4.9-0.01,2.65c-0.7,1.55-2.36,3.03-3.39,4.39c-3.86,5.11-7.45,10.42-10.74,15.92
			c-23.62,39.58-28.24,86.52-15.3,130.5c12.76,43.39,39.89,82.1,72.62,112.84c30.63,28.77,68.09,53.09,109.14,63.61
			c28.66,7.34,66.03,9.27,87.5-14.92c20.3-22.88,24.46-56.91,24.38-86.28c-0.11-38.83-8.25-77.98-21.67-114.33
			c-13.27-35.94-32.19-71.36-59.99-98.23c-12.49-12.07-26.83-22.13-42.96-28.65c-19.29-7.8-39.08-7.91-59.55-5.93
			c-12.87,1.24-26.03,2.79-38.49,6.38c2.73,1.55,5.45,3.1,8.18,4.64c-4.9-17.95-6.92-36.74-7.54-55.29
			c-0.59-17.86-0.39-37.06,5.72-54.09c0.93-2.6,2.25-5.39,4.04-8.04c1.2-1.78,2.58-3.11,4.62-4.26c1.09-0.61-0.7,0.16,0.48-0.23
			c0.63-0.21,1.27-0.38,1.92-0.52c-0.93,0.19,2.38-0.02,2.44-0.02c4.02,0.46,9.98,3.98,14.31,6.1
			c29.78,14.6,58.71,30.94,86.59,48.89c51.02,32.86,96.87,72.32,144.38,109.87c45.31,35.81,92.86,69.81,147.12,90.68
			c29.35,11.29,61.81,20.11,93.5,16.54c28.22-3.18,54.73-16.61,73.49-38.06c4.47-5.11,8.48-10.6,12-16.4
			c1.49-2.46,1.07-6.06-1.04-8.06c-60.18-56.96-129.48-104.17-204.39-139.56c-74.81-35.35-154.79-59.05-236.84-69.79
			c-11.46-1.5-22.96-2.74-34.48-3.72c-10.34-0.88-21.26-0.43-31.03-4.41c-7.33-2.99-13.69-7.97-18.9-13.87
			c-1.86-2.11-3.54-4.35-5.01-6.75c-0.54-0.88-1.02-1.79-1.52-2.69c-0.2-0.35-0.32-0.78-0.54-1.11c-0.36-0.55,0.53,1.47,0.06,0.04
			c-1.55,2.73-3.1,5.45-4.64,8.18c75.74-17.66,152.95,0.61,229.02,5.63c69.03,4.55,137.46-6.83,200.73-35.11
			c34.94-15.62,67.46-36.19,96.68-60.88c4.68-3.96,0.61-11.11-4.7-11.35c-41.96-1.94-79.36-24.42-119.16-35.4
			c-40.71-11.24-83.56-13.76-125.35-7.97c-40.81,5.66-78.66,20.59-115.27,39c-34.96,17.57-68.87,37.66-105.57,51.54
			c-19.88,7.52-40.58,12.83-61.53,16.39c-21.12,3.59-43.47,5.54-64.75,2.14c1.32,3.26,2.65,6.51,3.97,9.77
			c6.64-14.34,18.43-24.71,29.77-35.31c12.22-11.42,23.88-23.62,30.71-39.12c1.52-3.46,0.71-9.04-3.97-9.77
			c-5.67-0.88-11.67,0.46-17.38,0.61c-9.34,0.25-19.01-0.51-27.55-4.59c-3.11-1.48-7.35-1.02-9.1,2.39
			c-0.46,0.89-1.01,1.7-1.57,2.52c-0.44,0.66-1.55,2.05-0.35,0.52c-0.48,0.61-0.97,1.22-1.47,1.83c-2.52,3.06-5.19,5.98-7.89,8.88
			c-7.74,8.31-15.78,16.35-23.8,24.38c-21.72,21.74-43.62,43.31-64.76,65.62c-19.9,21-39.93,42.59-56.11,66.67
			c-8.14,12.12-22.96,34.93-9.8,48.6c8.19,8.51,21.06,5.38,30.88,10.26c21.48,10.66,30.5,37.8,35.12,59.58
			c12.27,57.89-4.54,119.87-31.14,171.42c-12.76,24.73-29.49,47.08-52.73,62.83c-21.71,14.71-47.1,23.91-73.1,27.18
			c-25.7,3.23-54.04,1.88-77.46-10.2c-22.17-11.44-35.84-32.05-41.81-55.87c-11.78-47.03,1.86-99.94,23.49-142.11
			c22.27-43.42,56.27-80.82,98-106.23c10.3-6.27,21.04-11.78,32.12-16.55c3.33-1.43,4.01-6.25,2.39-9.1
			C173.38,435.93,169.52,435.57,166.24,436.98L166.24,436.98z"/>
	</g>
</g>
</svg>
