<?xml version="1.0" encoding="utf-8"?>
<!-- Generator: Adobe Illustrator 26.0.2, SVG Export Plug-In . SVG Version: 6.00 Build 0)  -->
<svg version="1.1" id="Слой_1" xmlns="http://www.w3.org/2000/svg" xmlns:xlink="http://www.w3.org/1999/xlink" x="0px" y="0px"
	 viewBox="0 0 1000 1000" style="enable-background:new 0 0 1000 1000;" xml:space="preserve">
<style type="text/css">
	.st0{fill:#F5F5F5;}
</style>
<g>
	<path class="st0" d="M749.19,66.11C644.52,6.01,527.03-11.97,416.45,6.89c-4.46,0.75-8.99,1.57-13.45,2.45
		C266.02,36.5,140.92,120.42,66.11,250.8C-71.31,490.06,11.55,796.46,250.81,933.88c78.33,45.01,163.89,66.38,248.38,66.38
		c86.69,0,172.31-22.57,247.75-65.19c75.44-42.68,140.75-105.42,186.96-185.89C1071.31,509.93,988.45,203.46,749.19,66.11z
		 M500.75,37.44c78.14,0,157.22,19.74,229.64,61.36C851.03,168.07,928.67,283.8,953.69,410.6c-1.76-0.06-3.58,0.13-5.53,0.63
		c-49.73,12.64-111.84,27.6-154.71-8.93c-19.8-16.91-34.7-38.54-52.05-57.77c-16.85-18.8-36.65-34.14-59.6-44.82
		c-42.5-19.68-89.2-26.15-132.83-42.56c-17.1-6.41-36.08-16.78-49.29-30.49c-14.46-15.09-22.19-34.64-27.03-56.96
		c-9.05-41.93-8.24-89.27-27.97-128.81C463.22,38.57,481.96,37.44,500.75,37.44z M205.61,766.98c0.75,26.21-5.03,52.05-16.72,75.5
		C31.54,699.59-11.27,461.27,98.8,269.6c4.15-7.23,8.49-14.27,13.01-21.19c16.34,6.79,28.48,19.87,35.64,36.84
		c5.28,12.57,9.24,25.77,16.22,37.59c5.47,9.12,12.2,17.54,19.36,25.33c13.96,15.15,30.3,27.85,45.32,41.87
		c3.33,3.08,6.6,6.29,9.74,9.56c1.63,1.76,3.33,3.52,4.9,5.34c0.69,0.75,2.95,3.46,3.58,4.15c5.97,7.61,10.81,16.22,13.2,23.57
		c7.48,23.13,2.95,48.22,0.31,71.79c-2.89,26.4-3.02,52.05,6.35,77.39c8.11,21.88,16.34,41.24,6.6,62.86
		c-9.37,20.81-29.04,27.79-46.08,41.93c-10.88,8.99-18.86,21.75-21.25,35.71C203.16,737.37,205.23,751.95,205.61,766.98z
		 M901.2,730.39C797.91,910.25,591.22,994.55,398.73,951.48c35.33-18.42,58.9-53.62,75.25-89.77
		c18.48-41.11,29.48-88.39,57.46-122.84c13.83-17.04,29.11-27.79,49.91-33.82c24.01-6.98,49.22-10.5,69.53-26.34
		c11.32-8.8,18.36-20.68,27.09-31.81c5.85-7.35,13.52-13.33,20.05-15.97c19.36-7.92,40.92-4.78,61.36,1.19
		c27.53,8.05,51.93,23.51,78.58,35.14c27.79,12.01,56.89,20.43,86.82,16.22C917.86,699.4,910,715.05,901.2,730.39z M926.53,644.77
		c-25.52,6.54-51.49-1.89-74.75-12.38c-24.89-11.32-48.53-25.33-74.49-34.14c-23.7-7.98-49.03-11.82-73.87-7.73
		c-26.59,4.34-45.64,20.18-60.98,41.43c-6.54,9.05-12.45,16.72-22.07,21.94c-8.74,4.71-20.18,7.48-30.68,10.06
		c-24.83,6.16-47.4,13.96-67.39,30.49c-36.96,30.49-54.19,78.89-70.41,122.33c-15.97,42.56-39.29,93.67-84.17,106.74
		c-8.49,2.51-12.57,8.93-13.14,15.78c-28.98-9.62-57.46-22.25-84.99-38.1c-17.98-10.31-35.01-21.69-51.05-34.01
		c13.96-25.52,22.19-53.37,24.39-82.41c1.01-13.58-0.44-26.91-0.94-40.42c-0.38-10.75,0.63-20.56,7.54-27.41
		c7.04-6.92,16.66-11.69,25.33-17.98c11-7.98,20.37-17.22,27.41-28.92c14.14-23.76,16.53-52.37,7.92-78.39
		c-4.4-13.26-10.69-25.9-13.2-39.73c-2.2-12.07-1.32-24.77-0.25-36.9c2.39-26.78,7.04-52.93,2.45-79.77
		c-7.98-46.71-48.09-73.43-79.9-103.91c-8.3-8.05-15.34-15.46-20.87-24.01c-8.11-12.57-12.2-26.91-18.17-40.55
		c-9.43-21.63-25.9-39.04-46.46-49.66c68.9-89.2,166.15-147.6,271.38-169.67c10.18,14.65,15.28,32.31,18.86,51.49
		c4.59,24.52,6.04,48.72,10.94,74.43c4.97,25.71,13.96,50.35,30.36,71.1c14.21,18.04,33.57,31.62,54.38,41.11
		c43.63,19.93,91.78,26.03,136.23,43.75c2.39,1.01,1.45,0.57,4.97,2.14c2.45,1.13,4.9,2.26,7.36,3.52
		c5.09,2.58,10.12,5.34,14.96,8.42c10,6.29,17.6,13.01,26.65,22.57c18.42,19.43,33.51,41.93,53.37,59.91
		c25.9,23.45,57.4,35.46,92.16,36.9c34.7,1.45,69.4-6.66,102.78-15.15c0.38-0.13,0.75-0.19,1.13-0.38
		c2.14,17.73,3.21,35.58,3.21,53.5c0,48.59-7.61,97.5-23.39,145.03C935.65,644.08,931.37,643.51,926.53,644.77z"/>
</g>
</svg>
