<?xml version="1.0" encoding="utf-8"?>
<!-- Generator: Adobe Illustrator 26.0.2, SVG Export Plug-In . SVG Version: 6.00 Build 0)  -->
<svg version="1.1" id="Слой_1" xmlns="http://www.w3.org/2000/svg" xmlns:xlink="http://www.w3.org/1999/xlink" x="0px" y="0px"
	 viewBox="0 0 1000 1000" style="enable-background:new 0 0 1000 1000;" xml:space="preserve">
<g>
	<g>
		<path d="M172.37,426.67c-45.76,19.69-84.93,52.94-113.42,93.66C30.75,560.66,12.26,610,11.12,659.48
			c-0.56,24.46,3.55,50.08,16.13,71.4c13.55,22.96,36.41,37.44,62.15,43.21c51.65,11.58,110.47-3.68,150.26-38.39
			c21.75-18.98,36.73-44.21,48.44-70.29c12.21-27.2,21.62-55.8,25.89-85.37c4.26-29.55,3.66-59.87-4.52-88.72
			c-6.21-21.88-18.1-46.22-40.03-55.93c-5.48-2.42-11-3.58-16.94-4.08c-0.59-0.05-1.18-0.1-1.76-0.16c1.11,0.12,0.76,0.14-0.06-0.03
			c-0.99-0.2-1.98-0.39-2.95-0.68c-0.79-0.24-2.68-1.15-0.9-0.24c-0.73-0.37-1.42-0.78-2.13-1.17c-0.93-0.51-0.15-0.21,0.35,0.29
			c-0.12-0.12-0.54-0.61-0.69-0.63c-0.17-0.03-0.51-0.54-0.62-0.67c-0.48-0.56,0.77,1.47,0.18,0.17c-0.43-0.94-0.72-1.97-0.24-0.25
			c-0.2-0.7-0.37-1.41-0.57-2.1c-0.3-1.04,0.08,1.64,0.07,0.53c0-0.34-0.06-0.67-0.06-1.01c0.01-0.84,0.06-1.66,0.11-2.5
			c0.06-1.2-0.29,1.52-0.04,0.31c0.09-0.46,0.16-0.92,0.26-1.37c0.21-0.89,0.43-1.78,0.69-2.66c0.28-0.95,0.6-1.88,0.95-2.81
			c0.17-0.45,0.35-0.9,0.52-1.34c0.58-1.47-0.31,0.65,0.19-0.44c10.52-23.11,28.13-42.06,44.96-60.75
			c21.28-23.64,43.77-46.16,66.29-68.61c15.81-15.77,32.77-31.09,46.86-48.48c1.76-2.18,3.66-4.41,4.95-6.92
			c-3.12,0.82-6.24,1.64-9.37,2.46c9.42,4.49,19.56,6.27,29.96,6.37c3.87,0.04,7.73-0.17,11.59-0.47c1.51-0.12,3.02-0.27,4.53-0.37
			c0.83-0.05,3.77,0.13,1.21-0.27c-1.36-3.35-2.73-6.7-4.09-10.06c-13.09,29.71-45.8,43.78-59.34,73.03
			c-1.65,3.56-0.67,9.3,4.09,10.06c37.12,5.93,77.09-0.99,112.73-11.91c36.82-11.28,70.77-29.94,104.73-47.72
			c35.3-18.49,71.14-35.79,110.41-43.96c40.68-8.47,83.34-7.96,123.82,1.4c44.77,10.35,85.72,36.07,132.32,38.22
			c-1.61-3.9-3.23-7.79-4.84-11.69c-50.09,42.33-111.03,71.14-175.27,84.02c-32.87,6.59-66.27,8.51-99.72,6.69
			c-37.23-2.03-74.15-7.51-111.27-10.82c-41.54-3.71-83.5-4.19-124.35,5.33c-3.49,0.81-5.89,5-4.78,8.42
			c3.39,10.43,12.37,19.47,20.94,25.8c6.58,4.85,14.35,8.4,22.38,9.95c9.84,1.91,20.18,1.82,30.15,2.74
			c40.64,3.71,80.93,10.89,120.42,21.19c79.13,20.63,154.79,53.91,223.49,98.26c38.76,25.02,75.14,53.57,108.65,85.28
			c-0.36-2.77-0.71-5.53-1.07-8.3c-14,23.05-37.23,39.69-63.63,45.35c-31.19,6.68-64.05-2.08-93.27-12.93
			c-53.88-20-101.12-54.36-145.77-89.83c-47.1-37.42-92.82-76.44-143.65-108.87c-27.43-17.5-55.88-33.41-85.16-47.61
			c-8.02-3.89-16.34-8.3-25.43-5.25c-6.49,2.17-11.34,7.28-14.59,13.16c-8.47,15.34-9.63,34.74-9.92,51.87
			c-0.33,19.74,1.39,39.73,5.21,59.1c0.79,4.01,1.7,7.99,2.78,11.93c0.97,3.54,4.86,5.81,8.42,4.78
			c11.99-3.45,24.63-4.95,37.03-6.04c10.59-0.93,22.67-1.73,32.34-0.07c15.6,2.68,29.04,9.04,41.87,18.35
			c28.22,20.47,48.15,52.72,62.24,84.44c15.15,34.12,24.76,71.5,27.4,108.76c1.14,16.09,0.96,33.68-1.48,48.71
			c-2.26,13.91-5.84,26.5-12.93,37.74c-0.75,1.18-1.54,2.34-2.35,3.48c-1.01,1.42-0.11,0.21-0.71,0.95c-0.48,0.6-0.98,1.2-1.49,1.78
			c-1.87,2.15-3.9,4.11-6.07,5.94c-0.91,0.77-0.58,0.47-0.59,0.48c-0.52,0.38-1.05,0.76-1.58,1.13c-1.22,0.83-2.49,1.6-3.79,2.31
			c-1.14,0.62-2.31,1.19-3.5,1.71c1.41-0.61-0.56,0.21-0.97,0.35c-0.72,0.25-1.43,0.5-2.15,0.72c-14.5,4.48-30.86,3.9-45.89,0.96
			c-38.81-7.6-74.59-29.44-103.84-55.44c-31.81-28.27-58.75-64.03-72.11-104.78c-13.43-40.96-10.67-84.77,11.35-122.26
			c3.17-5.4,6.65-10.62,10.39-15.64c1.87-2.51,4-4.66,4.8-7.75c0.8-3.08,1.14-6.39,1.34-9.55c0.75-11.72-2.33-23.41-4.25-34.88
			c-2.72-16.18-2.82-32.41-1.14-48.71c1.43-13.84,5.05-28.16,4.23-42.12c-0.66-11.21-7.71-21.57-19.32-23.82
			c-10.73-2.07-23.22,2.2-31.89,8.57c-17.5,12.86-32.2,30.8-44.82,48.32c-4.74,6.58-9.85,13.73-12.16,21.61
			c-2.48,8.47,10.73,12.09,13.2,3.64c0.72-2.46,2.29-5.35,4.29-8.65c2.58-4.25,5.44-8.32,8.4-12.3c6.9-9.28,14.5-18.09,22.51-26.43
			c6.07-6.31,12.52-13.38,20.05-17.36c7.43-3.94,21.39-7.61,25.25,2.07c1.8,4.51,0.86,10.51,0.41,15.25
			c-0.72,7.64-1.91,15.22-2.87,22.83c-2.12,16.89-2.98,33.76-0.82,50.69c1.57,12.28,5.17,24.54,5.34,36.95
			c0.03,2.28-0.03,4.61-0.33,6.87c-0.07,0.54-1.11,4.98,0.08,2.46c-0.73,1.55-2.34,3-3.38,4.38c-3.79,5.01-7.31,10.22-10.53,15.62
			c-23.22,38.9-27.76,85.06-15.05,128.29c12.53,42.62,39.18,80.65,71.34,110.86c30.09,28.26,66.89,52.16,107.22,62.49
			c28.23,7.23,65.02,9.1,86.16-14.73c19.98-22.51,24.09-55.97,24.01-84.88c-0.11-38.12-8.1-76.57-21.28-112.26
			c-13.04-35.32-31.63-70.12-58.94-96.52c-12.29-11.88-26.41-21.77-42.3-28.19c-18.95-7.66-38.4-7.77-58.52-5.83
			c-12.65,1.22-25.6,2.74-37.85,6.27c2.81,1.59,5.61,3.19,8.42,4.78c-4.8-17.58-6.78-35.99-7.38-54.16
			c-0.58-17.5-0.38-36.3,5.6-52.98c0.87-2.42,2.15-5.16,3.93-7.81c1.13-1.68,2.43-2.93,4.42-4.06c1.12-0.64-0.83,0.2,0.39-0.2
			c0.62-0.2,1.25-0.37,1.88-0.51c-1.14,0.25,2.35,0,2.27-0.01c3.73,0.43,9.72,3.89,13.92,5.95c29.22,14.32,57.6,30.35,84.96,47.97
			c50.03,32.22,95,70.93,141.59,107.74c44.51,35.17,91.19,68.55,144.49,89.05c28.82,11.08,60.71,19.75,91.82,16.24
			c27.77-3.13,53.87-16.32,72.33-37.44c4.4-5.03,8.36-10.44,11.83-16.15c1.54-2.53,1.1-6.24-1.07-8.3
			c-59.06-55.91-127.08-102.24-200.6-136.98c-73.46-34.71-151.97-57.97-232.54-68.52c-11.25-1.47-22.53-2.69-33.83-3.65
			c-10.1-0.86-20.78-0.41-30.32-4.3c-7.16-2.91-13.35-7.79-18.44-13.54c-1.81-2.05-3.43-4.22-4.86-6.56c-0.53-0.86-1-1.76-1.49-2.64
			c-0.19-0.35-0.31-0.76-0.53-1.09c-0.38-0.58,0.57,1.58,0.09,0.11c-1.59,2.81-3.19,5.61-4.78,8.42
			c74.28-17.32,150.01,0.61,224.62,5.53c67.79,4.47,134.98-6.72,197.11-34.49c34.31-15.33,66.23-35.54,94.93-59.78
			c4.82-4.08,0.63-11.44-4.84-11.69c-41.13-1.9-77.81-23.96-116.83-34.73c-40-11.04-82.09-13.51-123.16-7.82
			c-40.07,5.56-77.23,20.22-113.18,38.29c-34.27,17.23-67.53,36.93-103.5,50.53c-19.51,7.38-39.81,12.59-60.37,16.09
			c-20.66,3.51-42.54,5.43-63.35,2.1c1.36,3.35,2.73,6.7,4.09,10.06c6.5-14.04,18.05-24.2,29.16-34.58
			c12.01-11.22,23.47-23.22,30.18-38.45c1.57-3.56,0.73-9.31-4.09-10.06c-5.6-0.87-11.5,0.43-17.14,0.59
			c-9.11,0.25-18.54-0.48-26.87-4.46c-3.2-1.53-7.56-1.05-9.37,2.46c-0.45,0.87-0.99,1.67-1.54,2.48c-0.48,0.71-1.52,2-0.29,0.45
			c-0.47,0.6-0.95,1.2-1.44,1.79c-2.47,3-5.09,5.87-7.74,8.71c-7.59,8.15-15.48,16.04-23.35,23.92
			c-21.31,21.33-42.8,42.49-63.54,64.38c-19.55,20.63-39.21,41.83-55.1,65.48c-8.09,12.04-22.61,34.53-9.57,48.07
			c8.09,8.4,20.67,5.31,30.36,10.12c21,10.43,29.8,36.98,34.31,58.27c12.02,56.71-4.46,117.44-30.52,167.94
			c-12.49,24.21-28.87,46.11-51.62,61.53c-21.25,14.4-46.11,23.42-71.55,26.62c-25.16,3.17-52.92,1.86-75.84-9.97
			c-21.69-11.19-35.03-31.32-40.87-54.63c-11.54-46.05,1.84-97.89,23.02-139.18c21.82-42.55,55.14-79.2,96.03-104.11
			c10.11-6.16,20.65-11.56,31.52-16.24c3.42-1.47,4.12-6.44,2.46-9.37C179.72,425.6,175.74,425.22,172.37,426.67L172.37,426.67z"/>
	</g>
</g>
</svg>
